#Comment line ignore any data following # character 
#Hierarchical Translation and Rotation (.htr) file 
[Header]	
#Header keywords are followed by a single value 
FileType HTR		#Single word string
DataType HTRS		#Translation followed by rotation and scale data
FileVersion 1		#integer
NumSegments 84		#integer
NumFrames 2		#integer
DataFrameRate 30		#integer, data frame rate in this file
EulerRotationOrder ZYX
CalibrationUnits mm
RotationUnits Degrees
GlobalAxisofGravity Y
BoneLengthAxis Y
ScaleFactor 1.00
[SegmentNames&Hierarchy]
#CHILD	PARENT
MASTER GLOBAL
root MASTER
chest root
L_mid_tent01 root
R_mid_tent01 root
spine01 root
Bip01_Neck chest
L_humerus chest
R_humerus chest
weapon_bone chest
Bip01_Head Bip01_Neck
eye_left_bone Bip01_Head
eye_right_bone Bip01_Head
L_forearm L_humerus
L_front_hand L_forearm
L_weapon_bone L_forearm
L_front_hand01_01 L_front_hand
L_front_hand02_01 L_front_hand
L_front_hand03_01 L_front_hand
L_front_hand01_02 L_front_hand01_01
L_front_hand02_02 L_front_hand02_01
L_front_hand03_02 L_front_hand03_01
R_forearm R_humerus
R_front_hand R_forearm
R_weapon_bone R_forearm
R_front_hand01_01 R_front_hand
R_front_hand02_01 R_front_hand
R_front_hand03_01 R_front_hand
R_front_hand01_02 R_front_hand01_01
R_front_hand02_02 R_front_hand02_01
R_front_hand03_02 R_front_hand03_01
null_rope01_connect L_mid_tent01
Rope1_Seg01 null_rope01_connect
Rope1_Seg02 Rope1_Seg01
Rope1_Seg03 Rope1_Seg02
Rope1_Seg04 Rope1_Seg03
Rope1_Seg05 Rope1_Seg04
Rope1_Seg06 Rope1_Seg05
Rope1_Seg07 Rope1_Seg06
Rope1_Seg09 Rope1_Seg07
L_mid_hand01 Rope1_Seg09
L_mid_hand02 Rope1_Seg09
L_mid_hand03 Rope1_Seg09
null_rope02_connect R_mid_tent01
Rope2_Seg01 null_rope02_connect
Rope2_Seg02 Rope2_Seg01
Rope2_Seg03 Rope2_Seg02
Rope2_Seg04 Rope2_Seg03
Rope2_Seg05 Rope2_Seg04
Rope2_Seg06 Rope2_Seg05
Rope2_Seg07 Rope2_Seg06
Rope2_Seg09 Rope2_Seg07
R_mid_hand01 Rope2_Seg09
R_mid_hand02 Rope2_Seg09
R_mid_hand03 Rope2_Seg09
spine02 spine01
spine03 spine02
pelvis spine03
null_rope03_connect pelvis
null_rope04_connect pelvis
Rope3_Seg01 null_rope03_connect
Rope3_Seg02 Rope3_Seg01
Rope3_Seg03 Rope3_Seg02
Rope3_Seg04 Rope3_Seg03
Rope3_Seg05 Rope3_Seg04
Rope3_Seg06 Rope3_Seg05
Rope3_Seg07 Rope3_Seg06
Rope3_Seg08 Rope3_Seg07
Rope3_Seg09 Rope3_Seg08
R_rear_hand01 Rope3_Seg09
R_rear_hand02 Rope3_Seg09
R_rear_hand03 Rope3_Seg09
Rope4_Seg01 null_rope04_connect
Rope4_Seg02 Rope4_Seg01
Rope4_Seg03 Rope4_Seg02
Rope4_Seg04 Rope4_Seg03
Rope4_Seg05 Rope4_Seg04
Rope4_Seg06 Rope4_Seg05
Rope4_Seg07 Rope4_Seg06
Rope4_Seg08 Rope4_Seg07
Rope4_Seg09 Rope4_Seg08
L_rear_hand01 Rope4_Seg09
L_rear_hand02 Rope4_Seg09
L_rear_hand03 Rope4_Seg09
[BasePosition]
#SegmentName Tx, Ty, Tz, Rx, Ry, Rz, BoneLength
MASTER 0.000000 0.000000 0.000000 -90.000000 0.000000 0.000000 10.000000 
root 0.000000 0.000000 0.000000 0.000000 0.000000 0.000000 10.000000 
chest 0.000000 0.000000 0.000000 0.000000 0.000000 0.000000 10.000000 
L_mid_tent01 0.000000 0.000000 0.000000 0.000000 0.000000 0.000000 10.000000 
R_mid_tent01 0.000000 0.000000 0.000000 0.000000 0.000000 0.000000 10.000000 
spine01 0.000000 0.000000 0.000000 0.000000 0.000000 0.000000 10.000000 
Bip01_Neck 0.000000 0.000000 0.000000 0.000000 0.000000 0.000000 10.000000 
L_humerus 0.000000 0.000000 0.000000 0.000000 0.000000 0.000000 10.000000 
R_humerus 0.000000 0.000000 0.000000 0.000000 0.000000 0.000000 10.000000 
weapon_bone 0.000000 0.000000 0.000000 0.000000 0.000000 0.000000 10.000000 
Bip01_Head 0.000000 0.000000 0.000000 0.000000 0.000000 0.000000 10.000000 
eye_left_bone 0.000000 0.000000 0.000000 0.000000 0.000000 0.000000 10.000000 
eye_right_bone 0.000000 0.000000 0.000000 0.000000 0.000000 0.000000 10.000000 
L_forearm 0.000000 0.000000 0.000000 0.000000 0.000000 0.000000 10.000000 
L_front_hand 0.000000 0.000000 0.000000 0.000000 0.000000 0.000000 10.000000 
L_weapon_bone 0.000000 0.000000 0.000000 0.000000 0.000000 0.000000 10.000000 
L_front_hand01_01 0.000000 0.000000 0.000000 0.000000 0.000000 0.000000 10.000000 
L_front_hand02_01 0.000000 0.000000 0.000000 0.000000 0.000000 0.000000 10.000000 
L_front_hand03_01 0.000000 0.000000 0.000000 0.000000 0.000000 0.000000 10.000000 
L_front_hand01_02 0.000000 0.000000 0.000000 0.000000 0.000000 0.000000 10.000000 
L_front_hand02_02 0.000000 0.000000 0.000000 0.000000 0.000000 0.000000 10.000000 
L_front_hand03_02 0.000000 0.000000 0.000000 0.000000 0.000000 0.000000 10.000000 
R_forearm 0.000000 0.000000 0.000000 0.000000 0.000000 0.000000 10.000000 
R_front_hand 0.000000 0.000000 0.000000 0.000000 0.000000 0.000000 10.000000 
R_weapon_bone 0.000000 0.000000 0.000000 0.000000 0.000000 0.000000 10.000000 
R_front_hand01_01 0.000000 0.000000 0.000000 0.000000 0.000000 0.000000 10.000000 
R_front_hand02_01 0.000000 0.000000 0.000000 0.000000 0.000000 0.000000 10.000000 
R_front_hand03_01 0.000000 0.000000 0.000000 0.000000 0.000000 0.000000 10.000000 
R_front_hand01_02 0.000000 0.000000 0.000000 0.000000 0.000000 0.000000 10.000000 
R_front_hand02_02 0.000000 0.000000 0.000000 0.000000 0.000000 0.000000 10.000000 
R_front_hand03_02 0.000000 0.000000 0.000000 0.000000 0.000000 0.000000 10.000000 
null_rope01_connect 0.000000 0.000000 0.000000 0.000000 0.000000 0.000000 10.000000 
Rope1_Seg01 0.000000 0.000000 0.000000 0.000000 0.000000 0.000000 10.000000 
Rope1_Seg02 0.000000 0.000000 0.000000 0.000000 0.000000 0.000000 10.000000 
Rope1_Seg03 0.000000 0.000000 0.000000 0.000000 0.000000 0.000000 10.000000 
Rope1_Seg04 0.000000 0.000000 0.000000 0.000000 0.000000 0.000000 10.000000 
Rope1_Seg05 0.000000 0.000000 0.000000 0.000000 0.000000 0.000000 10.000000 
Rope1_Seg06 0.000000 0.000000 0.000000 0.000000 0.000000 0.000000 10.000000 
Rope1_Seg07 0.000000 0.000000 0.000000 0.000000 0.000000 0.000000 10.000000 
Rope1_Seg09 0.000000 0.000000 0.000000 0.000000 0.000000 0.000000 10.000000 
L_mid_hand01 0.000000 0.000000 0.000000 0.000000 0.000000 0.000000 10.000000 
L_mid_hand02 0.000000 0.000000 0.000000 0.000000 0.000000 0.000000 10.000000 
L_mid_hand03 0.000000 0.000000 0.000000 0.000000 0.000000 0.000000 10.000000 
null_rope02_connect 0.000000 0.000000 0.000000 0.000000 0.000000 0.000000 10.000000 
Rope2_Seg01 0.000000 0.000000 0.000000 0.000000 0.000000 0.000000 10.000000 
Rope2_Seg02 0.000000 0.000000 0.000000 0.000000 0.000000 0.000000 10.000000 
Rope2_Seg03 0.000000 0.000000 0.000000 0.000000 0.000000 0.000000 10.000000 
Rope2_Seg04 0.000000 0.000000 0.000000 0.000000 0.000000 0.000000 10.000000 
Rope2_Seg05 0.000000 0.000000 0.000000 0.000000 0.000000 0.000000 10.000000 
Rope2_Seg06 0.000000 0.000000 0.000000 0.000000 0.000000 0.000000 10.000000 
Rope2_Seg07 0.000000 0.000000 0.000000 0.000000 0.000000 0.000000 10.000000 
Rope2_Seg09 0.000000 0.000000 0.000000 0.000000 0.000000 0.000000 10.000000 
R_mid_hand01 0.000000 0.000000 0.000000 0.000000 0.000000 0.000000 10.000000 
R_mid_hand02 0.000000 0.000000 0.000000 0.000000 0.000000 0.000000 10.000000 
R_mid_hand03 0.000000 0.000000 0.000000 0.000000 0.000000 0.000000 10.000000 
spine02 0.000000 0.000000 0.000000 0.000000 0.000000 0.000000 10.000000 
spine03 0.000000 0.000000 0.000000 0.000000 0.000000 0.000000 10.000000 
pelvis 0.000000 0.000000 0.000000 0.000000 0.000000 0.000000 10.000000 
null_rope03_connect 0.000000 0.000000 0.000000 0.000000 0.000000 0.000000 10.000000 
null_rope04_connect 0.000000 0.000000 0.000000 0.000000 0.000000 0.000000 10.000000 
Rope3_Seg01 0.000000 0.000000 0.000000 0.000000 0.000000 0.000000 10.000000 
Rope3_Seg02 0.000000 0.000000 0.000000 0.000000 0.000000 0.000000 10.000000 
Rope3_Seg03 0.000000 0.000000 0.000000 0.000000 0.000000 0.000000 10.000000 
Rope3_Seg04 0.000000 0.000000 0.000000 0.000000 0.000000 0.000000 10.000000 
Rope3_Seg05 0.000000 0.000000 0.000000 0.000000 0.000000 0.000000 10.000000 
Rope3_Seg06 0.000000 0.000000 0.000000 0.000000 0.000000 0.000000 10.000000 
Rope3_Seg07 0.000000 0.000000 0.000000 0.000000 0.000000 0.000000 10.000000 
Rope3_Seg08 0.000000 0.000000 0.000000 0.000000 0.000000 0.000000 10.000000 
Rope3_Seg09 0.000000 0.000000 0.000000 0.000000 0.000000 0.000000 10.000000 
R_rear_hand01 0.000000 0.000000 0.000000 0.000000 0.000000 0.000000 10.000000 
R_rear_hand02 0.000000 0.000000 0.000000 0.000000 0.000000 0.000000 10.000000 
R_rear_hand03 0.000000 0.000000 0.000000 0.000000 0.000000 0.000000 10.000000 
Rope4_Seg01 0.000000 0.000000 0.000000 0.000000 0.000000 0.000000 10.000000 
Rope4_Seg02 0.000000 0.000000 0.000000 0.000000 0.000000 0.000000 10.000000 
Rope4_Seg03 0.000000 0.000000 0.000000 0.000000 0.000000 0.000000 10.000000 
Rope4_Seg04 0.000000 0.000000 0.000000 0.000000 0.000000 0.000000 10.000000 
Rope4_Seg05 0.000000 0.000000 0.000000 0.000000 0.000000 0.000000 10.000000 
Rope4_Seg06 0.000000 0.000000 0.000000 0.000000 0.000000 0.000000 10.000000 
Rope4_Seg07 0.000000 0.000000 0.000000 0.000000 0.000000 0.000000 10.000000 
Rope4_Seg08 0.000000 0.000000 0.000000 0.000000 0.000000 0.000000 10.000000 
Rope4_Seg09 0.000000 0.000000 0.000000 0.000000 0.000000 0.000000 10.000000 
L_rear_hand01 0.000000 0.000000 0.000000 0.000000 0.000000 0.000000 10.000000 
L_rear_hand02 0.000000 0.000000 0.000000 0.000000 0.000000 0.000000 10.000000 
L_rear_hand03 0.000000 0.000000 0.000000 0.000000 0.000000 0.000000 10.000000 
#Beginning of Data. Separated by tabs
#Fr	Tx	Ty	Tz	Rx	Ry	Rz	SF
[MASTER]
26 0.000003 -0.000039 -4112.709961 0.001660 0.001660 0.001660 4112.709961
27 0.000003 -0.000035 -4325.413086 0.001660 0.001660 0.001660 4325.413086
[root]
26 -16.502302 -3.167940 1454.732788 -61.770298 -7.612135 -101.833412 1454.829834
27 -16.502302 -1.693198 1453.940430 -62.627377 -8.174924 -101.472092 1454.035034
[chest]
26 -84.512650 -34.090519 0.000000 1.562834 -0.142045 152.754333 91.129311
27 -84.512650 -34.090519 0.000000 1.304413 -0.435552 158.203598 91.129311
[L_mid_tent01]
26 27.299242 22.178690 -249.918610 2.840379 16.952471 80.395081 252.381577
27 27.299240 22.178705 -249.918610 3.785924 12.874218 81.452240 252.381577
[R_mid_tent01]
26 23.228794 24.509907 226.238495 157.927322 -40.790356 90.488205 228.744751
27 23.228794 24.509907 226.238495 163.033218 -18.271221 80.926430 228.744751
[spine01]
26 -0.361383 -0.195265 0.000000 0.002062 0.001122 32.879829 0.410763
27 -0.361383 -0.195265 0.000000 0.002062 0.001122 32.879829 0.410763
[Bip01_Neck]
26 165.484543 71.581718 0.000119 176.643677 -1.657967 43.431911 180.302734
27 165.484543 71.581718 0.000119 176.643677 -1.657967 43.431911 180.302734
[L_humerus]
26 -13.983130 -135.272980 -120.471481 158.909912 29.863466 -66.963051 181.680161
27 -13.983130 -135.272980 -120.471481 161.052307 24.782549 -65.992813 181.680161
[R_humerus]
26 -13.983309 -135.273102 125.287651 -176.168060 -8.529237 -88.181824 184.909012
27 -13.983309 -135.273102 125.287651 -176.609528 -9.877861 -87.010010 184.909012
[weapon_bone]
26 235.964890 -300.705902 0.000000 0.000000 -89.951546 -128.212341 382.234833
27 235.964890 -300.705902 0.000000 0.000000 -89.951546 -128.212341 382.234833
[Bip01_Head]
26 213.673889 185.076599 20.027296 31.273565 2.797658 -43.902245 283.391907
27 213.611328 185.250381 17.782103 24.318562 5.173717 -43.863880 283.308502
[eye_left_bone]
26 -24.626970 125.451866 -64.772606 0.000000 -90.000000 -99.840431 143.318359
27 -24.626970 125.451866 -64.772606 0.000000 -90.000000 -99.840431 143.318359
[eye_right_bone]
26 -24.626970 125.451866 64.327362 0.000000 -89.965736 80.156380 143.117676
27 -24.626970 125.451866 64.327362 0.000000 -89.965736 80.156380 143.117676
[L_forearm]
26 322.776093 0.000000 -0.000119 0.000113 -0.002345 -95.507172 322.776093
27 322.776093 0.000000 -0.000119 0.000111 -0.002345 -95.433662 322.776093
[L_front_hand]
26 241.149185 -0.042021 -3.300071 -178.649704 -1.821061 -28.038948 241.171753
27 241.149185 -0.042021 -3.300071 -178.651352 -1.827961 -27.860620 241.171753
[L_weapon_bone]
26 156.183838 0.000000 0.000000 0.000014 0.000007 0.000001 156.183838
27 156.183838 0.000000 0.000000 0.000014 0.000007 0.000001 156.183838
[L_front_hand01_01]
26 86.095154 20.947098 -0.655860 -0.366594 -0.477154 75.385582 88.609184
27 86.095154 20.947098 -0.655860 -0.366594 -0.477154 75.385574 88.609184
[L_front_hand02_01]
26 86.935165 -11.437475 24.513514 154.399811 -59.883835 -61.369606 91.046425
27 86.935165 -11.437475 24.513514 154.399796 -59.883835 -61.369587 91.046425
[L_front_hand03_01]
26 86.637497 -14.123976 -20.424902 -153.913849 58.118122 -62.702866 90.126129
27 86.637497 -14.123976 -20.424902 -153.913849 58.118122 -62.702866 90.126129
[L_front_hand01_02]
26 71.020905 -0.000179 0.000030 0.000334 -0.002323 -106.379684 71.020905
27 71.020905 -0.000179 0.000030 0.000334 -0.002323 -106.379684 71.020905
[L_front_hand02_02]
26 71.020927 -0.000119 0.000060 0.000334 -0.002323 -106.379684 71.020927
27 71.020927 -0.000119 0.000060 0.000334 -0.002323 -106.379684 71.020927
[L_front_hand03_02]
26 71.020905 -0.000060 0.000060 0.000334 -0.002323 -106.379684 71.020905
27 71.020905 -0.000060 0.000060 0.000334 -0.002323 -106.379684 71.020905
[R_forearm]
26 322.776428 -0.000060 0.000030 0.213159 0.008533 -93.967583 322.776428
27 322.776428 -0.000060 0.000030 0.213163 0.008433 -93.913460 322.776428
[R_front_hand]
26 238.847015 -0.006795 2.210259 -2.497781 -10.675570 -27.039812 238.857239
27 238.847015 -0.006795 2.210259 -2.539313 -10.665933 -26.826586 238.857239
[R_weapon_bone]
26 155.664093 0.002503 -0.000030 0.003487 0.001180 -90.988930 155.664078
27 155.664093 0.002503 -0.000030 0.003487 0.001180 -90.988930 155.664078
[R_front_hand01_01]
26 87.624611 14.231146 22.918642 -154.633499 -59.950619 61.746044 91.683487
27 87.624611 14.231146 22.918642 -154.633499 -59.950619 61.746044 91.683487
[R_front_hand02_01]
26 89.356956 14.367283 -19.491137 154.602661 58.302849 63.744389 92.579636
27 89.356956 14.367283 -19.491137 154.602661 58.302849 63.744389 92.579636
[R_front_hand03_01]
26 87.286232 -22.307278 -0.143439 0.162155 -0.423168 -75.767921 90.091743
27 87.286232 -22.307278 -0.143439 0.162155 -0.423168 -75.767921 90.091743
[R_front_hand01_02]
26 71.020905 0.000060 0.000119 0.002323 -0.000334 106.381714 71.020905
27 71.020905 0.000060 0.000119 0.002323 -0.000334 106.381714 71.020905
[R_front_hand02_02]
26 71.020844 -0.000030 -0.000119 0.002323 -0.000334 106.381714 71.020836
27 71.020844 -0.000030 -0.000119 0.002323 -0.000334 106.381714 71.020836
[R_front_hand03_02]
26 71.020905 0.000000 0.000030 0.002323 -0.000334 106.381714 71.020905
27 71.020905 0.000000 0.000030 0.002323 -0.000334 106.381714 71.020905
[null_rope01_connect]
26 328.732483 0.000000 -0.000238 -50.910023 -69.840866 68.474457 328.732483
27 328.732483 0.000000 -0.000238 -42.592384 -68.314087 59.987877 328.732483
[Rope1_Seg01]
26 0.000043 -0.000046 0.000173 -36.202206 62.275330 142.433762 0.000185
27 0.000045 -0.000046 0.000180 -25.854616 54.379414 151.303284 0.000191
[Rope1_Seg02]
26 139.999863 -0.000179 0.000000 -3.863888 12.443139 -7.188457 139.999863
27 139.999863 -0.000179 0.000000 -2.400192 11.189991 -7.878730 139.999863
[Rope1_Seg03]
26 139.999924 0.000060 -0.000060 -7.779707 14.096176 -7.243103 139.999924
27 139.999924 0.000060 -0.000060 -5.277393 13.790050 -9.162477 139.999924
[Rope1_Seg04]
26 139.999924 -0.000060 -0.000119 -9.043478 9.910928 -3.856881 139.999924
27 139.999924 -0.000060 -0.000119 -7.478491 11.092010 -6.015584 139.999924
[Rope1_Seg05]
26 139.999832 0.000119 -0.000060 -26.956467 14.313313 -2.544076 139.999832
27 139.999832 0.000119 -0.000060 -25.210634 15.718484 -6.771729 139.999832
[Rope1_Seg06]
26 139.999954 0.000119 -0.000060 -67.945679 25.127268 8.653824 139.999954
27 139.999954 0.000119 -0.000060 -95.546364 29.444113 0.521697 139.999954
[Rope1_Seg07]
26 139.999985 0.000060 0.000000 -17.348118 0.812288 19.398823 139.999985
27 139.999985 0.000060 0.000000 -15.225013 -2.158002 18.598318 139.999985
[Rope1_Seg09]
26 121.602913 0.000119 -0.000089 -89.793175 -1.359789 0.847147 121.602913
27 121.602913 0.000119 -0.000089 -89.793175 -1.359789 0.847147 121.602913
[L_mid_hand01]
26 103.859421 1.038730 8.195221 130.544373 -67.584534 -38.866943 104.187431
27 103.859421 1.038730 8.195221 130.544373 -67.584534 -38.866943 104.187431
[L_mid_hand02]
26 105.572853 -4.139662 -10.864139 -168.923172 43.409309 -73.498886 106.211075
27 105.572853 -4.139662 -10.864139 -168.923172 43.409309 -73.498886 106.211075
[L_mid_hand03]
26 104.641464 17.579376 -3.913581 -6.012627 17.808174 74.893669 106.179977
27 104.641464 17.579376 -3.913581 -6.012627 17.808174 74.893669 106.179977
[null_rope02_connect]
26 328.732849 0.000179 -0.000119 -153.507736 24.973288 -2.790286 328.732849
27 328.732849 0.000179 -0.000119 -154.684387 49.627499 -3.630470 328.732849
[Rope2_Seg01]
26 0.000032 0.000107 0.000000 56.902649 33.049950 -13.326320 0.000112
27 0.000036 0.000108 0.000000 89.967934 -2.297616 1.209792 0.000114
[Rope2_Seg02]
26 139.999741 -0.000060 -0.000119 1.062856 4.284008 0.189803 139.999756
27 139.999741 -0.000060 -0.000119 -10.666780 -3.066400 -12.008851 139.999756
[Rope2_Seg03]
26 140.000107 0.000030 0.000000 3.244638 6.404835 4.267239 140.000107
27 140.000107 0.000030 0.000000 -8.561329 0.852305 -13.054460 140.000107
[Rope2_Seg04]
26 139.999802 0.000000 -0.000060 -1.719627 -1.635471 -3.887480 139.999802
27 139.999802 0.000000 -0.000060 -4.926024 3.102580 -10.525644 139.999802
[Rope2_Seg05]
26 139.999985 -0.000060 0.000119 -8.483741 -14.028480 -19.563995 139.999985
27 139.999985 -0.000060 0.000119 -7.186927 -7.494741 -14.622583 139.999985
[Rope2_Seg06]
26 139.999893 -0.000030 -0.000119 -8.436525 -8.666797 -19.109877 139.999893
27 139.999893 -0.000030 -0.000119 -9.937192 -11.133662 -22.875631 139.999893
[Rope2_Seg07]
26 139.999893 0.000060 -0.000060 -5.241680 -3.411280 -13.096346 139.999893
27 139.999893 0.000060 -0.000060 -6.155909 -2.845252 -16.616173 139.999893
[Rope2_Seg09]
26 121.338966 0.000089 -0.000060 33.793236 -1.359788 -0.847141 121.338966
27 121.338966 0.000089 -0.000060 33.793236 -1.359788 -0.847141 121.338966
[R_mid_hand01]
26 104.680779 11.144459 -10.335981 -16.212063 45.237247 70.462852 105.778534
27 104.680779 11.144459 -10.335981 -16.212063 45.237247 70.462852 105.778534
[R_mid_hand02]
26 104.070427 2.443552 8.231699 49.067368 -67.749771 39.286453 104.424065
27 104.070427 2.443552 8.231699 49.067368 -67.749771 39.286453 104.424065
[R_mid_hand03]
26 106.028137 -11.221827 -5.996406 -177.101105 15.551026 -76.585571 106.788818
27 106.028137 -11.221827 -5.996406 -177.101105 15.551026 -76.585571 106.788818
[spine02]
26 129.756927 0.001550 0.000119 -1.124724 -3.934846 8.222736 129.756927
27 129.756927 0.001550 0.000119 -1.109789 -3.929955 8.018761 129.756927
[spine03]
26 78.613998 0.082940 -4.898981 0.975549 4.224692 3.314483 78.766541
27 78.613998 0.082879 -4.898983 0.984100 4.203783 3.428476 78.766541
[pelvis]
26 169.435242 0.051022 0.000000 0.024764 -0.164773 -12.550885 169.435257
27 169.435242 0.051022 0.000000 0.024944 -0.169742 -12.307120 169.435257
[null_rope03_connect]
26 -1.257226 -2.466202 137.391083 -14.392757 -61.491184 83.171616 137.418976
27 -1.257226 -2.466202 137.391083 -13.976107 -62.444164 82.963348 137.418976
[null_rope04_connect]
26 -1.259640 -2.480268 -137.844437 -14.392757 -61.491184 83.171616 137.872513
27 -1.259640 -2.480268 -137.844437 -13.976107 -62.444164 82.963348 137.872513
[Rope3_Seg01]
26 -0.000016 0.000022 0.000108 28.327162 -34.922997 -93.543327 0.000111
27 -0.000017 0.000023 0.000118 34.552021 -39.037674 -100.833702 0.000121
[Rope3_Seg02]
26 139.999924 -0.000119 0.000060 2.723625 -2.644360 15.444907 139.999924
27 139.999924 -0.000119 0.000060 3.623879 0.017733 18.664982 139.999924
[Rope3_Seg03]
26 139.999924 -0.000119 0.000119 0.182506 3.081667 29.072086 139.999924
27 139.999924 -0.000119 0.000119 1.274816 7.272953 34.698952 139.999924
[Rope3_Seg04]
26 139.999924 0.000119 0.000000 -15.044981 -10.158598 29.725407 139.999924
27 139.999924 0.000119 0.000000 -11.138457 0.881091 28.604076 139.999924
[Rope3_Seg05]
26 139.999924 -0.000238 0.000060 -13.513198 -26.773048 6.394741 139.999924
27 139.999924 -0.000238 0.000060 -25.055490 -24.054176 13.169090 139.999924
[Rope3_Seg06]
26 139.999893 -0.000119 -0.000060 -2.336575 -8.939167 1.603437 139.999893
27 139.999893 -0.000119 -0.000060 -7.575171 -14.438057 1.562105 139.999893
[Rope3_Seg07]
26 139.999771 0.000060 -0.000119 -0.680909 -4.777572 0.817135 139.999771
27 139.999771 0.000060 -0.000119 -2.546127 -6.938336 0.666508 139.999771
[Rope3_Seg08]
26 139.999985 -0.000060 0.000000 -0.032707 -2.639476 0.417962 139.999985
27 139.999985 -0.000060 0.000000 -0.875662 -3.776172 0.193827 139.999985
[Rope3_Seg09]
26 90.185997 -0.000179 -0.000060 89.793228 -1.359877 -0.847183 90.185997
27 90.185997 -0.000179 -0.000060 89.793228 -1.359877 -0.847183 90.185997
[R_rear_hand01]
26 103.366196 -6.073594 -10.757982 -177.714203 24.565960 -73.910950 104.101845
27 103.366196 -6.073594 -10.757982 -177.714203 24.565960 -73.910950 104.101845
[R_rear_hand02]
26 100.509819 12.039542 -7.992327 -12.874829 36.868488 72.167213 101.543350
27 100.509819 12.039542 -7.992327 -12.874829 36.868488 72.167213 101.543350
[R_rear_hand03]
26 101.539970 5.215704 5.435467 71.484581 -71.816628 21.513813 101.819031
27 101.539970 5.215704 5.435467 71.484581 -71.816628 21.513813 101.819031
[Rope4_Seg01]
26 0.000000 0.000000 0.000000 -92.392136 -3.815864 -139.306793 0.000000
27 0.000000 0.000000 0.000000 -88.423035 -9.793082 -140.363388 0.000000
[Rope4_Seg02]
26 139.999985 0.000060 0.000119 -5.269384 6.653622 10.587206 139.999985
27 139.999985 0.000060 0.000119 -5.456267 6.608234 11.271780 139.999985
[Rope4_Seg03]
26 139.999924 0.000000 -0.000238 -10.590557 5.557243 12.342692 139.999924
27 139.999924 0.000000 -0.000238 -11.751194 5.610085 13.837512 139.999924
[Rope4_Seg04]
26 139.999985 0.000000 0.000119 -12.812700 0.744114 9.614685 139.999985
27 139.999985 0.000000 0.000119 -15.080977 -0.210791 11.272521 139.999985
[Rope4_Seg05]
26 139.999802 -0.000060 -0.000119 -37.498520 4.249798 21.464973 139.999802
27 139.999802 -0.000060 -0.000119 -32.612202 3.036761 20.206257 139.999802
[Rope4_Seg06]
26 139.999924 0.000000 0.000060 -42.507828 -9.084722 22.382299 139.999924
27 139.999924 0.000000 0.000060 -41.967216 -7.170273 23.205837 139.999924
[Rope4_Seg07]
26 139.999802 0.000000 0.000000 -9.847402 -9.731115 4.524192 139.999802
27 139.999802 0.000000 0.000000 -11.525759 -10.103166 5.755792 139.999802
[Rope4_Seg08]
26 139.999924 0.000000 0.000119 -4.931215 -5.251888 1.402434 139.999924
27 139.999924 0.000000 0.000119 -5.399405 -5.537387 1.769936 139.999924
[Rope4_Seg09]
26 90.185791 0.000060 0.000060 -135.617828 2.228885 0.850567 90.185791
27 90.185791 0.000060 0.000060 -135.617828 2.228885 0.850567 90.185791
[L_rear_hand01]
26 101.696655 -8.392275 -7.654577 -12.874829 -36.868488 107.832764 102.329041
27 101.696655 -8.392275 -7.654577 -12.874829 -36.868488 107.832764 102.329041
[L_rear_hand02]
26 102.726799 -1.568258 5.773216 71.484581 71.816628 158.486160 102.900848
27 102.726799 -1.568258 5.773216 71.484581 71.816628 158.486160 102.900848
[L_rear_hand03]
26 104.552910 9.721220 -10.420293 -177.714203 -24.565960 -106.089035 105.519653
27 104.552910 9.721220 -10.420293 -177.714203 -24.565960 -106.089035 105.519653
